<svg width="884" height="360" viewBox="0 0 884 360" fill="none" xmlns="http://www.w3.org/2000/svg">
<path d="M378.009 23.6136C108.07 364.988 294 -111 130.181 44.5C-33.6387 200 -12.8825 189.62 -35.8916 229.444V267.881C40.2404 185.24 177.284 121.545 130.181 242.025C61.6526 417.306 175 336 238.916 258.333C302.832 180.665 365.82 115 432 311C498.18 507 603 35 656.5 209C710 383 843.5 202.5 881 80C905.977 -1.59212 736.904 358 695.5 80C681.5 -14 518.5 205.682 464.82 166.157C411.141 126.632 448.509 -65.5433 378.009 23.6136Z" fill="white"/>
</svg>
