<svg width="784" height="307" viewBox="0 0 784 307" fill="none" xmlns="http://www.w3.org/2000/svg">
<path d="M343 59C167.5 200.5 299 -109 109.171 43.5434C31.6109 105.87 -12.8825 155.62 -35.8916 195.444V233.88C40.2404 151.24 177.284 87.5454 130.181 208.025C61.6526 383.306 188.704 281.182 257.736 232.333C326.768 183.483 391.292 195.353 450.82 285C510.348 374.647 474.35 13.8675 690.925 226.184C728.552 263.071 759.1 284.491 783.5 294.363V247.726C767.559 250.153 735.216 196.813 668.915 22.6569C632.021 -74.2575 537.5 241 450.82 168.5C364.141 96 518.5 -82.5 343 59Z" fill="white"/>
</svg>
