<svg width="651" height="550" viewBox="0 0 651 550" fill="none" xmlns="http://www.w3.org/2000/svg">
<path d="M116.708 105.769C116.708 138.14 91.553 164.021 60.9591 164.021C30.3653 164.021 5.21 138.14 5.21 105.769C5.21 73.3983 30.3653 47.5177 60.9591 47.5177C91.553 47.5177 116.708 73.3983 116.708 105.769Z" stroke="white" stroke-width="10.42"/>
<path d="M386.554 444.231C386.554 499.968 343.204 544.79 290.165 544.79C237.127 544.79 193.777 499.968 193.777 444.231C193.777 388.494 237.127 343.672 290.165 343.672C343.204 343.672 386.554 388.494 386.554 444.231Z" stroke="white" stroke-width="10.42"/>
<path d="M645.021 275C645.021 307.371 619.865 333.252 589.272 333.252C558.678 333.252 533.523 307.371 533.523 275C533.523 242.629 558.678 216.749 589.272 216.749C619.865 216.749 645.021 242.629 645.021 275Z" stroke="white" stroke-width="10.42"/>
<path d="M544.235 63.4616C544.235 95.8326 519.08 121.713 488.486 121.713C457.892 121.713 432.737 95.8326 432.737 63.4616C432.737 31.0906 457.892 5.21006 488.486 5.21006C519.08 5.21006 544.235 31.0906 544.235 63.4616Z" stroke="white" stroke-width="10.42"/>
<path d="M330.471 174.308C330.471 206.679 305.316 232.559 274.722 232.559C244.128 232.559 218.973 206.679 218.973 174.308C218.973 141.937 244.128 116.056 274.722 116.056C305.316 116.056 330.471 141.937 330.471 174.308Z" stroke="white" stroke-width="10.42"/>
</svg>
