<svg width="1501" height="711" viewBox="0 0 1501 711" fill="none" xmlns="http://www.w3.org/2000/svg">
<path d="M-66.6892 204.629C-142.137 207.77 1 6.5 1 6.5C1 6.5 -100 221.906 42.291 115.888C184.582 9.86974 204.659 20.1566 165.329 92.3283C126 164.5 34.1745 252.533 99.7519 342.06C165.329 431.586 306.428 244.408 442.234 60.6437C578.041 -123.121 500.633 181.725 632.017 142.086C763.4 102.446 919.345 92.004 747.212 242C575.079 391.996 817.132 556.128 889.313 348.018C961.494 139.908 736.813 -35.9072 889.313 6.50001C1041.81 48.9072 1087.86 356.657 1298 242C1508.14 127.343 1446.36 40.6496 1647 54C1847.64 67.3505 1738 221.906 1738 221.906C1738 221.906 1508.76 1006.5 1548.5 587.865C1554.98 519.623 1563.98 458.009 1574.11 403.177C1562.5 396.922 1548.74 388.295 1532.5 377C1325.5 233.06 927 382.5 853.5 516C780 649.5 546.533 758 632.017 566C717.5 374 417.5 472.56 567.5 348.018C717.5 223.477 333.731 88.4016 249.53 415.88C165.329 743.358 66 142.086 -30.2763 464.57C-126.553 787.053 -37.1721 342.06 48.5249 223.477C134.222 104.893 8.75876 201.488 -66.6892 204.629Z" fill="#FFD2CE"/>
</svg>
