<svg width="1053" height="561" viewBox="0 0 1053 561" fill="none" xmlns="http://www.w3.org/2000/svg">
<path d="M264 165.5C251.734 250.227 274.863 230.108 308.073 194.5C347.964 151.728 402.398 86.606 427.5 154M528 211C696.5 319 534.5 -47.0001 651 26.4999M749.5 77.9999C833 127.5 733.5 168.5 769.5 220M813.5 337.5C846.5 541 635 266 590.5 467" stroke="#FFA69E" stroke-width="10"/>
<path d="M321.708 107.769C321.708 140.14 296.553 166.021 265.959 166.021C235.365 166.021 210.21 140.14 210.21 107.769C210.21 75.3983 235.365 49.5177 265.959 49.5177C296.553 49.5177 321.708 75.3983 321.708 107.769Z" stroke="white" stroke-width="10.42"/>
<path d="M591.554 446.231C591.554 501.968 548.204 546.79 495.165 546.79C442.127 546.79 398.777 501.968 398.777 446.231C398.777 390.494 442.127 345.672 495.165 345.672C548.204 345.672 591.554 390.494 591.554 446.231Z" stroke="white" stroke-width="10.42"/>
<path d="M850.021 277C850.021 309.371 824.865 335.252 794.272 335.252C763.678 335.252 738.523 309.371 738.523 277C738.523 244.629 763.678 218.749 794.272 218.749C824.865 218.749 850.021 244.629 850.021 277Z" stroke="white" stroke-width="10.42"/>
<path d="M749.235 65.4616C749.235 97.8326 724.08 123.713 693.486 123.713C662.892 123.713 637.737 97.8326 637.737 65.4616C637.737 33.0906 662.892 7.21006 693.486 7.21006C724.08 7.21006 749.235 33.0906 749.235 65.4616Z" stroke="white" stroke-width="10.42"/>
<path d="M535.471 176.308C535.471 208.679 510.316 234.559 479.722 234.559C449.128 234.559 423.973 208.679 423.973 176.308C423.973 143.937 449.128 118.056 479.722 118.056C510.316 118.056 535.471 143.937 535.471 176.308Z" stroke="white" stroke-width="10.42"/>
<path d="M240.125 116.469V100.367L237.266 101.938V100.262L242.352 97.836H242.469V115.414L240.242 116.469H240.125ZM247.812 111.406L249.969 110.375H250.086C250.086 111.961 250.371 113.082 250.941 113.738C251.645 114.543 252.551 114.945 253.66 114.945C254.871 114.945 255.785 114.543 256.402 113.738C256.957 113.012 257.234 112.164 257.234 111.195V108.195C256.25 109.117 255.059 109.578 253.66 109.578C251.84 109.578 250.395 109.012 249.324 107.879C248.27 106.762 247.742 105.414 247.742 103.836C247.742 102.242 248.27 100.887 249.324 99.7696C250.395 98.6368 251.84 98.0704 253.66 98.0704C255.48 98.0704 256.926 98.6368 257.996 99.7696C259.051 100.887 259.578 102.234 259.578 103.813V110.375C259.578 112.031 259.051 113.418 257.996 114.535C256.926 115.668 255.48 116.234 253.66 116.234C251.777 116.234 250.332 115.711 249.324 114.664C248.316 113.609 247.812 112.523 247.812 111.406ZM253.66 108.289C254.777 108.289 255.688 107.887 256.391 107.082C256.953 106.434 257.234 105.344 257.234 103.813C257.234 102.297 256.953 101.215 256.391 100.566C255.703 99.7618 254.793 99.3594 253.66 99.3594C252.551 99.3594 251.641 99.7618 250.93 100.566C250.367 101.215 250.086 102.297 250.086 103.813C250.086 105.336 250.367 106.426 250.93 107.082C251.617 107.887 252.527 108.289 253.66 108.289ZM264.336 111.406L266.492 110.375H266.609C266.609 111.961 266.895 113.082 267.465 113.738C268.168 114.543 269.074 114.945 270.184 114.945C271.395 114.945 272.309 114.543 272.926 113.738C273.48 113.012 273.758 112.164 273.758 111.195V108.195C272.773 109.117 271.582 109.578 270.184 109.578C268.363 109.578 266.918 109.012 265.848 107.879C264.793 106.762 264.266 105.414 264.266 103.836C264.266 102.242 264.793 100.887 265.848 99.7696C266.918 98.6368 268.363 98.0704 270.184 98.0704C272.004 98.0704 273.449 98.6368 274.52 99.7696C275.574 100.887 276.102 102.234 276.102 103.813V110.375C276.102 112.031 275.574 113.418 274.52 114.535C273.449 115.668 272.004 116.234 270.184 116.234C268.301 116.234 266.855 115.711 265.848 114.664C264.84 113.609 264.336 112.523 264.336 111.406ZM270.184 108.289C271.301 108.289 272.211 107.887 272.914 107.082C273.477 106.434 273.758 105.344 273.758 103.813C273.758 102.297 273.477 101.215 272.914 100.566C272.227 99.7618 271.316 99.3594 270.184 99.3594C269.074 99.3594 268.164 99.7618 267.453 100.566C266.891 101.215 266.609 102.297 266.609 103.813C266.609 105.336 266.891 106.426 267.453 107.082C268.141 107.887 269.051 108.289 270.184 108.289ZM292.32 102.898L290.164 103.93H290.047C290.047 102.352 289.762 101.231 289.191 100.566C288.488 99.7618 287.66 99.3594 286.707 99.3594C285.574 99.3594 284.66 99.7618 283.965 100.566C283.41 101.199 283.133 102.047 283.133 103.109V106.109C284.148 105.188 285.34 104.727 286.707 104.727C288.527 104.727 289.973 105.293 291.043 106.426C292.098 107.543 292.625 108.891 292.625 110.469C292.625 112.063 292.098 113.418 291.043 114.535C289.973 115.668 288.527 116.234 286.707 116.234C284.887 116.234 283.441 115.668 282.371 114.535C281.316 113.418 280.789 112.07 280.789 110.492V103.93C280.789 102.273 281.316 100.887 282.371 99.7696C283.441 98.6368 284.887 98.0704 286.707 98.0704C288.434 98.0704 289.801 98.5977 290.809 99.6524C291.816 100.699 292.32 101.781 292.32 102.898ZM289.438 107.223C288.75 106.418 287.84 106.016 286.707 106.016C285.574 106.016 284.664 106.418 283.977 107.223C283.414 107.856 283.133 108.945 283.133 110.492C283.133 111.992 283.414 113.074 283.977 113.738C284.664 114.543 285.574 114.945 286.707 114.945C287.809 114.945 288.719 114.543 289.438 113.738C290 113.106 290.281 112.023 290.281 110.492C290.281 108.969 290 107.879 289.438 107.223Z" fill="black"/>
<path d="M453.234 184V183.883L453.785 182.711L460.078 176.688C461.883 174.859 462.785 173.156 462.785 171.578C462.785 170.203 462.523 169.199 462 168.566C461.336 167.762 460.426 167.359 459.27 167.359C458.152 167.359 457.242 167.762 456.539 168.566C456 169.191 455.73 170.106 455.73 171.309C455.73 172.152 455.871 172.813 456.152 173.289L454.184 174.238H454.066C453.59 173.395 453.352 172.469 453.352 171.461C453.352 170.117 453.879 168.887 454.934 167.77C456.004 166.637 457.449 166.07 459.27 166.07C461.09 166.07 462.535 166.637 463.605 167.77C464.652 168.879 465.176 170.238 465.176 171.848C465.168 173.606 464.113 175.453 462.012 177.391L455.766 182.711H465.223V182.828L464.672 184H453.234ZM471.797 179.195C471.797 180.242 472.078 181.09 472.641 181.738C473.336 182.543 474.246 182.945 475.371 182.945C476.496 182.945 477.406 182.543 478.102 181.738C478.664 181.09 478.945 180.242 478.945 179.195V171.109C478.945 170.063 478.664 169.215 478.102 168.566C477.406 167.762 476.496 167.359 475.371 167.359C474.246 167.359 473.336 167.762 472.641 168.566C472.078 169.215 471.797 170.063 471.797 171.109V179.195ZM469.453 178.375V171.93C469.453 170.234 469.98 168.848 471.035 167.77C472.145 166.637 473.59 166.07 475.371 166.07C477.152 166.07 478.598 166.637 479.707 167.77C480.762 168.84 481.289 170.227 481.289 171.93V178.375C481.289 180.07 480.762 181.457 479.707 182.535C478.598 183.668 477.152 184.234 475.371 184.234C473.59 184.234 472.145 183.668 471.035 182.535C469.98 181.457 469.453 180.07 469.453 178.375ZM488.32 179.195C488.32 180.242 488.602 181.09 489.164 181.738C489.859 182.543 490.77 182.945 491.895 182.945C493.02 182.945 493.93 182.543 494.625 181.738C495.188 181.09 495.469 180.242 495.469 179.195V171.109C495.469 170.063 495.188 169.215 494.625 168.566C493.93 167.762 493.02 167.359 491.895 167.359C490.77 167.359 489.859 167.762 489.164 168.566C488.602 169.215 488.32 170.063 488.32 171.109V179.195ZM485.977 178.375V171.93C485.977 170.234 486.504 168.848 487.559 167.77C488.668 166.637 490.113 166.07 491.895 166.07C493.676 166.07 495.121 166.637 496.23 167.77C497.285 168.84 497.812 170.227 497.812 171.93V178.375C497.812 180.07 497.285 181.457 496.23 182.535C495.121 183.668 493.676 184.234 491.895 184.234C490.113 184.234 488.668 183.668 487.559 182.535C486.504 181.457 485.977 180.07 485.977 178.375ZM503.25 184.469V168.367L500.391 169.938V168.262L505.477 165.836H505.594V183.414L503.367 184.469H503.25Z" fill="black"/>
<path d="M663.125 73.0001V72.8829L663.676 71.711L669.969 65.6876C671.773 63.8594 672.676 62.1563 672.676 60.5782C672.676 59.2032 672.414 58.1993 671.891 57.5665C671.227 56.7618 670.316 56.3594 669.16 56.3594C668.043 56.3594 667.133 56.7618 666.43 57.5665C665.891 58.1915 665.621 59.1055 665.621 60.3087C665.621 61.1524 665.762 61.8126 666.043 62.2891L664.074 63.2383H663.957C663.48 62.3946 663.242 61.4688 663.242 60.461C663.242 59.1172 663.77 57.8868 664.824 56.7696C665.895 55.6368 667.34 55.0704 669.16 55.0704C670.98 55.0704 672.426 55.6368 673.496 56.7696C674.543 57.879 675.066 59.2383 675.066 60.8477C675.059 62.6055 674.004 64.4532 671.902 66.3907L665.656 71.711H675.113V71.8282L674.562 73.0001H663.125ZM681.688 68.1954C681.688 69.2422 681.969 70.0899 682.531 70.7383C683.227 71.543 684.137 71.9454 685.262 71.9454C686.387 71.9454 687.297 71.543 687.992 70.7383C688.555 70.0899 688.836 69.2422 688.836 68.1954V60.1094C688.836 59.0626 688.555 58.2149 687.992 57.5665C687.297 56.7618 686.387 56.3594 685.262 56.3594C684.137 56.3594 683.227 56.7618 682.531 57.5665C681.969 58.2149 681.688 59.0626 681.688 60.1094V68.1954ZM679.344 67.3751V60.9297C679.344 59.2344 679.871 57.8477 680.926 56.7696C682.035 55.6368 683.48 55.0704 685.262 55.0704C687.043 55.0704 688.488 55.6368 689.598 56.7696C690.652 57.8399 691.18 59.2266 691.18 60.9297V67.3751C691.18 69.0704 690.652 70.4571 689.598 71.5352C688.488 72.668 687.043 73.2344 685.262 73.2344C683.48 73.2344 682.035 72.668 680.926 71.5352C679.871 70.4571 679.344 69.0704 679.344 67.3751ZM698.211 68.1954C698.211 69.2422 698.492 70.0899 699.055 70.7383C699.75 71.543 700.66 71.9454 701.785 71.9454C702.91 71.9454 703.82 71.543 704.516 70.7383C705.078 70.0899 705.359 69.2422 705.359 68.1954V60.1094C705.359 59.0626 705.078 58.2149 704.516 57.5665C703.82 56.7618 702.91 56.3594 701.785 56.3594C700.66 56.3594 699.75 56.7618 699.055 57.5665C698.492 58.2149 698.211 59.0626 698.211 60.1094V68.1954ZM695.867 67.3751V60.9297C695.867 59.2344 696.395 57.8477 697.449 56.7696C698.559 55.6368 700.004 55.0704 701.785 55.0704C703.566 55.0704 705.012 55.6368 706.121 56.7696C707.176 57.8399 707.703 59.2266 707.703 60.9297V67.3751C707.703 69.0704 707.176 70.4571 706.121 71.5352C705.012 72.668 703.566 73.2344 701.785 73.2344C700.004 73.2344 698.559 72.668 697.449 71.5352C696.395 70.4571 695.867 69.0704 695.867 67.3751ZM711.922 67.3751L714.148 66.3204H714.266V68.1954C714.266 69.2188 714.547 70.0665 715.109 70.7383C715.789 71.543 716.699 71.9454 717.84 71.9454C718.957 71.9454 719.867 71.543 720.57 70.7383C721.125 70.1055 721.402 69.0235 721.402 67.4922C721.402 66.1251 721.117 65.1368 720.547 64.5274C719.805 63.7227 718.895 63.3204 717.816 63.3204C716.668 63.3204 715.758 63.7227 715.086 64.5274L712.766 63.5313L714.723 55.3047H722.844V55.4219L722.293 56.5938H716.598L715.074 62.6641C715.941 62.2422 716.855 62.0313 717.816 62.0313C719.59 62.0313 721.012 62.4962 722.082 63.4258C723.191 64.3868 723.746 65.7344 723.746 67.4688C723.746 69.0626 723.223 70.418 722.176 71.5352C721.105 72.668 719.66 73.2344 717.84 73.2344C716.02 73.2344 714.574 72.668 713.504 71.5352C712.449 70.418 711.922 69.0313 711.922 67.3751Z" fill="black"/>
<path d="M768.215 285V284.883L768.766 283.711L775.059 277.688C776.863 275.859 777.766 274.156 777.766 272.578C777.766 271.203 777.504 270.199 776.98 269.566C776.316 268.762 775.406 268.359 774.25 268.359C773.133 268.359 772.223 268.762 771.52 269.566C770.98 270.191 770.711 271.106 770.711 272.309C770.711 273.152 770.852 273.813 771.133 274.289L769.164 275.238H769.047C768.57 274.395 768.332 273.469 768.332 272.461C768.332 271.117 768.859 269.887 769.914 268.77C770.984 267.637 772.43 267.07 774.25 267.07C776.07 267.07 777.516 267.637 778.586 268.77C779.633 269.879 780.156 271.238 780.156 272.848C780.148 274.606 779.094 276.453 776.992 278.391L770.746 283.711H780.203V283.828L779.652 285H768.215ZM786.777 280.195C786.777 281.242 787.059 282.09 787.621 282.738C788.316 283.543 789.227 283.945 790.352 283.945C791.477 283.945 792.387 283.543 793.082 282.738C793.645 282.09 793.926 281.242 793.926 280.195V272.109C793.926 271.063 793.645 270.215 793.082 269.566C792.387 268.762 791.477 268.359 790.352 268.359C789.227 268.359 788.316 268.762 787.621 269.566C787.059 270.215 786.777 271.063 786.777 272.109V280.195ZM784.434 279.375V272.93C784.434 271.234 784.961 269.848 786.016 268.77C787.125 267.637 788.57 267.07 790.352 267.07C792.133 267.07 793.578 267.637 794.688 268.77C795.742 269.84 796.27 271.227 796.27 272.93V279.375C796.27 281.07 795.742 282.457 794.688 283.535C793.578 284.668 792.133 285.234 790.352 285.234C788.57 285.234 787.125 284.668 786.016 283.535C784.961 282.457 784.434 281.07 784.434 279.375ZM801.707 285.469V269.367L798.848 270.938V269.262L803.934 266.836H804.051V284.414L801.824 285.469H801.707ZM808.855 279.469C808.855 277.938 809.449 276.617 810.637 275.508C810.887 275.273 811.184 275.066 811.527 274.887C810.441 274.012 809.898 272.961 809.898 271.734C809.898 270.172 810.383 268.992 811.352 268.195C812.273 267.445 813.41 267.07 814.762 267.07C816.113 267.07 817.25 267.445 818.172 268.195C819.141 268.984 819.625 270.164 819.625 271.734C819.625 272.961 819.082 274.012 817.996 274.887C818.34 275.066 818.637 275.273 818.887 275.508C820.074 276.617 820.668 277.938 820.668 279.469C820.668 281.063 820.145 282.418 819.098 283.535C818.027 284.668 816.582 285.234 814.762 285.234C812.934 285.234 811.488 284.668 810.426 283.535C809.379 282.418 808.855 281.063 808.855 279.469ZM812.031 282.738C812.734 283.543 813.645 283.945 814.762 283.945C815.879 283.945 816.789 283.543 817.492 282.738C818.047 282.106 818.324 281.023 818.324 279.492C818.324 278.305 818.098 277.445 817.645 276.914C817.02 276.18 816.059 275.813 814.762 275.813C813.465 275.813 812.504 276.18 811.879 276.914C811.426 277.445 811.199 278.305 811.199 279.492C811.199 281.023 811.477 282.106 812.031 282.738ZM816.59 269.074C816.129 268.598 815.52 268.359 814.762 268.359C814.004 268.359 813.395 268.598 812.934 269.074C812.473 269.551 812.242 270.379 812.242 271.559C812.242 272.621 812.418 273.348 812.77 273.738C813.238 274.262 813.902 274.523 814.762 274.523C815.621 274.523 816.285 274.262 816.754 273.738C817.105 273.348 817.281 272.621 817.281 271.559C817.281 270.379 817.051 269.551 816.59 269.074Z" fill="black"/>
<path d="M437.913 462V461.782L438.939 459.6L450.657 448.384C454.017 444.98 455.697 441.808 455.697 438.87C455.697 436.309 455.21 434.44 454.235 433.262C452.999 431.763 451.304 431.014 449.151 431.014C447.071 431.014 445.376 431.763 444.067 433.262C443.063 434.425 442.561 436.127 442.561 438.368C442.561 439.939 442.823 441.168 443.347 442.055L439.681 443.823H439.463C438.575 442.252 438.131 440.528 438.131 438.651C438.131 436.149 439.113 433.858 441.077 431.778C443.07 429.668 445.762 428.614 449.151 428.614C452.541 428.614 455.232 429.668 457.225 431.778C459.174 433.843 460.149 436.375 460.149 439.371C460.134 442.645 458.171 446.085 454.257 449.693L442.627 459.6H460.236V459.818L459.211 462H437.913ZM472.478 453.053C472.478 455.003 473.002 456.581 474.049 457.789C475.344 459.287 477.039 460.036 479.133 460.036C481.228 460.036 482.923 459.287 484.218 457.789C485.265 456.581 485.789 455.003 485.789 453.053V437.997C485.789 436.047 485.265 434.469 484.218 433.262C482.923 431.763 481.228 431.014 479.133 431.014C477.039 431.014 475.344 431.763 474.049 433.262C473.002 434.469 472.478 436.047 472.478 437.997V453.053ZM468.114 451.526V439.524C468.114 436.367 469.096 433.785 471.06 431.778C473.125 429.668 475.817 428.614 479.133 428.614C482.45 428.614 485.141 429.668 487.207 431.778C489.171 433.771 490.153 436.353 490.153 439.524V451.526C490.153 454.683 489.171 457.265 487.207 459.272C485.141 461.382 482.45 462.436 479.133 462.436C475.817 462.436 473.125 461.382 471.06 459.272C469.096 457.265 468.114 454.683 468.114 451.526ZM497.79 462V461.782L498.816 459.6L510.534 448.384C513.894 444.98 515.575 441.808 515.575 438.87C515.575 436.309 515.087 434.44 514.113 433.262C512.876 431.763 511.181 431.014 509.028 431.014C506.948 431.014 505.253 431.763 503.944 433.262C502.94 434.425 502.438 436.127 502.438 438.368C502.438 439.939 502.7 441.168 503.224 442.055L499.558 443.823H499.34C498.452 442.252 498.009 440.528 498.009 438.651C498.009 436.149 498.991 433.858 500.954 431.778C502.947 429.668 505.639 428.614 509.028 428.614C512.418 428.614 515.109 429.668 517.102 431.778C519.051 433.843 520.026 436.375 520.026 439.371C520.012 442.645 518.048 446.085 514.134 449.693L502.504 459.6H520.113V459.818L519.088 462H497.79ZM532.355 453.053C532.355 455.003 532.879 456.581 533.926 457.789C535.221 459.287 536.916 460.036 539.011 460.036C541.105 460.036 542.8 459.287 544.095 457.789C545.142 456.581 545.666 455.003 545.666 453.053V437.997C545.666 436.047 545.142 434.469 544.095 433.262C542.8 431.763 541.105 431.014 539.011 431.014C536.916 431.014 535.221 431.763 533.926 433.262C532.879 434.469 532.355 436.047 532.355 437.997V453.053ZM527.991 451.526V439.524C527.991 436.367 528.973 433.785 530.937 431.778C533.002 429.668 535.694 428.614 539.011 428.614C542.327 428.614 545.019 429.668 547.084 431.778C549.048 433.771 550.03 436.353 550.03 439.524V451.526C550.03 454.683 549.048 457.265 547.084 459.272C545.019 461.382 542.327 462.436 539.011 462.436C535.694 462.436 533.002 461.382 530.937 459.272C528.973 457.265 527.991 454.683 527.991 451.526Z" fill="black"/>
</svg>
