<svg width="545" height="461" viewBox="0 0 545 461" fill="none" xmlns="http://www.w3.org/2000/svg">
<line y1="-4.25895" x2="91.9097" y2="-4.25895" transform="matrix(0.902275 0.431161 -0.403441 0.915006 96.3101 107.093)" stroke="#FFC7C2" stroke-width="8.51789"/>
<line x1="277.536" y1="138.892" x2="379.938" y2="73.0784" stroke="#FFC7C2" stroke-width="8.51789"/>
<line x1="477.657" y1="192.75" x2="432.229" y2="78.2316" stroke="#FFC7C2" stroke-width="8.51789"/>
<line x1="323.215" y1="369.272" x2="479.376" y2="272.736" stroke="#FFC7C2" stroke-width="8.51789"/>
<path d="M98.0707 89.4016C98.0707 116.474 77.0332 138.118 51.4475 138.118C25.8619 138.118 4.82442 116.474 4.82442 89.4016C4.82442 62.3297 25.8619 40.6857 51.4475 40.6857C77.0332 40.6857 98.0707 62.3297 98.0707 89.4016Z" fill="white" stroke="#FFC7C2" stroke-width="8.71427"/>
<path d="M323.743 372.458C323.743 419.071 287.489 456.556 243.133 456.556C198.777 456.556 162.523 419.071 162.523 372.458C162.523 325.845 198.777 288.36 243.133 288.36C287.489 288.36 323.743 325.845 323.743 372.458Z" fill="white" stroke="#FFC7C2" stroke-width="8.71427"/>
<path d="M539.899 230.93C539.899 258.002 518.862 279.646 493.276 279.646C467.69 279.646 446.653 258.002 446.653 230.93C446.653 203.858 467.69 182.214 493.276 182.214C518.862 182.214 539.899 203.858 539.899 230.93Z" fill="white" stroke="#FFC7C2" stroke-width="8.71427"/>
<path d="M455.612 54.0197C455.612 81.0916 434.575 102.736 408.989 102.736C383.403 102.736 362.366 81.0916 362.366 54.0197C362.366 26.9478 383.403 5.30379 408.989 5.30379C434.575 5.30379 455.612 26.9478 455.612 54.0197Z" fill="white" stroke="#FFC7C2" stroke-width="8.71427"/>
<path d="M276.841 146.721C276.841 173.793 255.804 195.436 230.218 195.436C204.632 195.436 183.595 173.793 183.595 146.721C183.595 119.649 204.632 98.0047 230.218 98.0047C255.804 98.0047 276.841 119.649 276.841 146.721Z" fill="white" stroke="#FFC7C2" stroke-width="8.71427"/>
<path d="M29.842 96.4422V82.9765L27.4507 84.2897V82.8883L31.704 80.8596H31.802V95.5602L29.94 96.4422H29.842ZM36.271 92.2085L38.0743 91.346H38.1723C38.1723 92.6724 38.4108 93.6099 38.8877 94.1588C39.4758 94.8317 40.2337 95.1682 41.1614 95.1682C42.1742 95.1682 42.9386 94.8317 43.4547 94.1588C43.9186 93.5511 44.1506 92.8422 44.1506 92.0321V89.5232C43.3273 90.2941 42.331 90.6796 41.1614 90.6796C39.6391 90.6796 38.4304 90.2059 37.5353 89.2585C36.6533 88.3242 36.2122 87.1972 36.2122 85.8774C36.2122 84.5445 36.6533 83.411 37.5353 82.4767C38.4304 81.5293 39.6391 81.0556 41.1614 81.0556C42.6838 81.0556 43.8925 81.5293 44.7876 82.4767C45.6696 83.411 46.1107 84.538 46.1107 85.8578V91.346C46.1107 92.7312 45.6696 93.8909 44.7876 94.8252C43.8925 95.7726 42.6838 96.2462 41.1614 96.2462C39.5868 96.2462 38.3781 95.8085 37.5353 94.933C36.6925 94.0509 36.271 93.1428 36.271 92.2085ZM41.1614 89.6016C42.0957 89.6016 42.8569 89.2651 43.4449 88.5921C43.9154 88.0498 44.1506 87.1384 44.1506 85.8578C44.1506 84.5903 43.9154 83.6854 43.4449 83.1431C42.87 82.4701 42.1088 82.1336 41.1614 82.1336C40.2337 82.1336 39.4725 82.4701 38.8779 83.1431C38.4075 83.6854 38.1723 84.5903 38.1723 85.8578C38.1723 87.1319 38.4075 88.0433 38.8779 88.5921C39.4529 89.2651 40.2141 89.6016 41.1614 89.6016ZM50.0896 92.2085L51.8929 91.346H51.9909C51.9909 92.6724 52.2294 93.6099 52.7063 94.1588C53.2944 94.8317 54.0523 95.1682 54.98 95.1682C55.9927 95.1682 56.7572 94.8317 57.2733 94.1588C57.7372 93.5511 57.9692 92.8422 57.9692 92.0321V89.5232C57.1459 90.2941 56.1495 90.6796 54.98 90.6796C53.4577 90.6796 52.249 90.2059 51.3539 89.2585C50.4718 88.3242 50.0308 87.1972 50.0308 85.8774C50.0308 84.5445 50.4718 83.411 51.3539 82.4767C52.249 81.5293 53.4577 81.0556 54.98 81.0556C56.5024 81.0556 57.7111 81.5293 58.6062 82.4767C59.4882 83.411 59.9292 84.538 59.9292 85.8578V91.346C59.9292 92.7312 59.4882 93.8909 58.6062 94.8252C57.7111 95.7726 56.5024 96.2462 54.98 96.2462C53.4054 96.2462 52.1967 95.8085 51.3539 94.933C50.511 94.0509 50.0896 93.1428 50.0896 92.2085ZM54.98 89.6016C55.9143 89.6016 56.6755 89.2651 57.2635 88.5921C57.7339 88.0498 57.9692 87.1384 57.9692 85.8578C57.9692 84.5903 57.7339 83.6854 57.2635 83.1431C56.6886 82.4701 55.9274 82.1336 54.98 82.1336C54.0523 82.1336 53.2911 82.4701 52.6965 83.1431C52.2261 83.6854 51.9909 84.5903 51.9909 85.8578C51.9909 87.1319 52.2261 88.0433 52.6965 88.5921C53.2715 89.2651 54.0327 89.6016 54.98 89.6016ZM73.493 85.0934L71.6897 85.9558H71.5917C71.5917 84.636 71.3533 83.6984 70.8763 83.1431C70.2883 82.4701 69.5957 82.1336 68.7986 82.1336C67.8512 82.1336 67.0868 82.4701 66.5053 83.1431C66.0414 83.6723 65.8095 84.3812 65.8095 85.2698V87.7787C66.6589 87.0077 67.6552 86.6222 68.7986 86.6222C70.3209 86.6222 71.5297 87.0959 72.4248 88.0433C73.3068 88.9776 73.7478 90.1046 73.7478 91.4244C73.7478 92.7573 73.3068 93.8909 72.4248 94.8252C71.5297 95.7726 70.3209 96.2462 68.7986 96.2462C67.2763 96.2462 66.0676 95.7726 65.1725 94.8252C64.2904 93.8909 63.8494 92.7638 63.8494 91.444V85.9558C63.8494 84.5707 64.2904 83.411 65.1725 82.4767C66.0676 81.5293 67.2763 81.0556 68.7986 81.0556C70.2425 81.0556 71.3859 81.4966 72.2288 82.3787C73.0716 83.2542 73.493 84.1591 73.493 85.0934ZM71.0821 88.7097C70.5072 88.0368 69.746 87.7003 68.7986 87.7003C67.8512 87.7003 67.0901 88.0368 66.5151 88.7097C66.0447 89.2389 65.8095 90.1504 65.8095 91.444C65.8095 92.6985 66.0447 93.6034 66.5151 94.1588C67.0901 94.8317 67.8512 95.1682 68.7986 95.1682C69.7199 95.1682 70.481 94.8317 71.0821 94.1588C71.5525 93.6295 71.7877 92.7246 71.7877 91.444C71.7877 90.17 71.5525 89.2585 71.0821 88.7097Z" fill="black"/>
<path d="M208.066 152.919V152.821L208.527 151.841L213.79 146.803C215.299 145.274 216.054 143.85 216.054 142.53C216.054 141.38 215.835 140.541 215.397 140.012C214.842 139.339 214.081 139.002 213.114 139.002C212.179 139.002 211.418 139.339 210.83 140.012C210.379 140.534 210.154 141.299 210.154 142.305C210.154 143.01 210.271 143.563 210.507 143.961L208.86 144.755H208.762C208.364 144.049 208.164 143.275 208.164 142.432C208.164 141.308 208.605 140.279 209.487 139.345C210.383 138.398 211.591 137.924 213.114 137.924C214.636 137.924 215.845 138.398 216.74 139.345C217.615 140.273 218.053 141.41 218.053 142.756C218.046 144.226 217.164 145.771 215.407 147.391L210.183 151.841H218.092V151.939L217.632 152.919H208.066ZM223.59 148.901C223.59 149.776 223.825 150.485 224.296 151.027C224.877 151.7 225.639 152.037 226.579 152.037C227.52 152.037 228.281 151.7 228.863 151.027C229.333 150.485 229.568 149.776 229.568 148.901V142.138C229.568 141.263 229.333 140.554 228.863 140.012C228.281 139.339 227.52 139.002 226.579 139.002C225.639 139.002 224.877 139.339 224.296 140.012C223.825 140.554 223.59 141.263 223.59 142.138V148.901ZM221.63 148.215V142.824C221.63 141.406 222.071 140.247 222.953 139.345C223.881 138.398 225.09 137.924 226.579 137.924C228.069 137.924 229.278 138.398 230.206 139.345C231.088 140.24 231.529 141.4 231.529 142.824V148.215C231.529 149.632 231.088 150.792 230.206 151.694C229.278 152.641 228.069 153.115 226.579 153.115C225.09 153.115 223.881 152.641 222.953 151.694C222.071 150.792 221.63 149.632 221.63 148.215ZM237.409 148.901C237.409 149.776 237.644 150.485 238.114 151.027C238.696 151.7 239.457 152.037 240.398 152.037C241.339 152.037 242.1 151.7 242.681 151.027C243.152 150.485 243.387 149.776 243.387 148.901V142.138C243.387 141.263 243.152 140.554 242.681 140.012C242.1 139.339 241.339 139.002 240.398 139.002C239.457 139.002 238.696 139.339 238.114 140.012C237.644 140.554 237.409 141.263 237.409 142.138V148.901ZM235.449 148.215V142.824C235.449 141.406 235.89 140.247 236.772 139.345C237.7 138.398 238.908 137.924 240.398 137.924C241.888 137.924 243.096 138.398 244.024 139.345C244.906 140.24 245.347 141.4 245.347 142.824V148.215C245.347 149.632 244.906 150.792 244.024 151.694C243.096 152.641 241.888 153.115 240.398 153.115C238.908 153.115 237.7 152.641 236.772 151.694C235.89 150.792 235.449 149.632 235.449 148.215ZM249.895 153.311V139.845L247.503 141.158V139.757L251.757 137.728H251.855V152.429L249.993 153.311H249.895Z" fill="black"/>
<path d="M383.598 60.0892V59.9912L384.059 59.0111L389.322 53.9737C390.831 52.4448 391.586 51.0205 391.586 49.7007C391.586 48.5508 391.367 47.7112 390.929 47.182C390.374 46.5091 389.613 46.1726 388.646 46.1726C387.711 46.1726 386.95 46.5091 386.362 47.182C385.911 47.7047 385.686 48.4691 385.686 49.4753C385.686 50.181 385.804 50.733 386.039 51.1316L384.392 51.9254H384.294C383.896 51.2198 383.696 50.4456 383.696 49.6027C383.696 48.4789 384.137 47.4499 385.019 46.5156C385.915 45.5682 387.123 45.0945 388.646 45.0945C390.168 45.0945 391.377 45.5682 392.272 46.5156C393.147 47.4434 393.585 48.5802 393.585 49.9261C393.579 51.3962 392.696 52.9414 390.939 54.5617L385.715 59.0111H393.624V59.1091L393.164 60.0892H383.598ZM399.122 56.071C399.122 56.9465 399.358 57.6554 399.828 58.1977C400.409 58.8707 401.171 59.2071 402.111 59.2071C403.052 59.2071 403.813 58.8707 404.395 58.1977C404.865 57.6554 405.101 56.9465 405.101 56.071V49.3087C405.101 48.4332 404.865 47.7243 404.395 47.182C403.813 46.5091 403.052 46.1726 402.111 46.1726C401.171 46.1726 400.409 46.5091 399.828 47.182C399.358 47.7243 399.122 48.4332 399.122 49.3087V56.071ZM397.162 55.385V49.9947C397.162 48.577 397.603 47.4172 398.485 46.5156C399.413 45.5682 400.622 45.0945 402.111 45.0945C403.601 45.0945 404.81 45.5682 405.738 46.5156C406.62 47.4107 407.061 48.5704 407.061 49.9947V55.385C407.061 56.8028 406.62 57.9625 405.738 58.8641C404.81 59.8115 403.601 60.2852 402.111 60.2852C400.622 60.2852 399.413 59.8115 398.485 58.8641C397.603 57.9625 397.162 56.8028 397.162 55.385ZM412.941 56.071C412.941 56.9465 413.176 57.6554 413.647 58.1977C414.228 58.8707 414.989 59.2071 415.93 59.2071C416.871 59.2071 417.632 58.8707 418.214 58.1977C418.684 57.6554 418.919 56.9465 418.919 56.071V49.3087C418.919 48.4332 418.684 47.7243 418.214 47.182C417.632 46.5091 416.871 46.1726 415.93 46.1726C414.989 46.1726 414.228 46.5091 413.647 47.182C413.176 47.7243 412.941 48.4332 412.941 49.3087V56.071ZM410.981 55.385V49.9947C410.981 48.577 411.422 47.4172 412.304 46.5156C413.232 45.5682 414.44 45.0945 415.93 45.0945C417.42 45.0945 418.628 45.5682 419.556 46.5156C420.438 47.4107 420.879 48.5704 420.879 49.9947V55.385C420.879 56.8028 420.438 57.9625 419.556 58.8641C418.628 59.8115 417.42 60.2852 415.93 60.2852C414.44 60.2852 413.232 59.8115 412.304 58.8641C411.422 57.9625 410.981 56.8028 410.981 55.385ZM424.407 55.385L426.269 54.5029H426.367V56.071C426.367 56.9269 426.603 57.6358 427.073 58.1977C427.642 58.8707 428.403 59.2071 429.357 59.2071C430.291 59.2071 431.052 58.8707 431.64 58.1977C432.104 57.6685 432.336 56.7636 432.336 55.483C432.336 54.3396 432.097 53.5131 431.62 53.0035C431 52.3305 430.239 51.994 429.337 51.994C428.377 51.994 427.615 52.3305 427.053 53.0035L425.113 52.1704L426.75 45.2905H433.541V45.3885L433.081 46.3686H428.318L427.044 51.4452C427.769 51.0924 428.533 50.916 429.337 50.916C430.82 50.916 432.009 51.3047 432.904 52.0822C433.832 52.8859 434.296 54.0129 434.296 55.4634C434.296 56.7962 433.858 57.9298 432.983 58.8641C432.088 59.8115 430.879 60.2852 429.357 60.2852C427.834 60.2852 426.626 59.8115 425.73 58.8641C424.848 57.9298 424.407 56.7701 424.407 55.385Z" fill="black"/>
<path d="M471.485 237.385V237.287L471.945 236.307L477.208 231.27C478.717 229.741 479.472 228.317 479.472 226.997C479.472 225.847 479.253 225.007 478.815 224.478C478.26 223.805 477.499 223.469 476.532 223.469C475.598 223.469 474.836 223.805 474.248 224.478C473.798 225.001 473.572 225.765 473.572 226.771C473.572 227.477 473.69 228.029 473.925 228.428L472.278 229.222H472.18C471.782 228.516 471.583 227.742 471.583 226.899C471.583 225.775 472.024 224.746 472.906 223.812C473.801 222.864 475.009 222.391 476.532 222.391C478.054 222.391 479.263 222.864 480.158 223.812C481.033 224.74 481.471 225.876 481.471 227.222C481.465 228.692 480.583 230.238 478.825 231.858L473.601 236.307H481.51V236.405L481.05 237.385H471.485ZM487.008 233.367C487.008 234.243 487.244 234.952 487.714 235.494C488.296 236.167 489.057 236.503 489.998 236.503C490.938 236.503 491.7 236.167 492.281 235.494C492.752 234.952 492.987 234.243 492.987 233.367V226.605C492.987 225.729 492.752 225.02 492.281 224.478C491.7 223.805 490.938 223.469 489.998 223.469C489.057 223.469 488.296 223.805 487.714 224.478C487.244 225.02 487.008 225.729 487.008 226.605V233.367ZM485.048 232.681V227.291C485.048 225.873 485.489 224.713 486.371 223.812C487.299 222.864 488.508 222.391 489.998 222.391C491.487 222.391 492.696 222.864 493.624 223.812C494.506 224.707 494.947 225.867 494.947 227.291V232.681C494.947 234.099 494.506 235.259 493.624 236.16C492.696 237.108 491.487 237.581 489.998 237.581C488.508 237.581 487.299 237.108 486.371 236.16C485.489 235.259 485.048 234.099 485.048 232.681ZM499.494 237.777V224.312L497.103 225.625V224.223L501.356 222.195H501.454V236.895L499.592 237.777H499.494ZM505.472 232.76C505.472 231.479 505.969 230.375 506.962 229.447C507.171 229.251 507.419 229.078 507.707 228.928C506.799 228.196 506.345 227.317 506.345 226.291C506.345 224.985 506.75 223.998 507.56 223.332C508.331 222.704 509.282 222.391 510.412 222.391C511.542 222.391 512.493 222.704 513.264 223.332C514.074 223.991 514.479 224.978 514.479 226.291C514.479 227.317 514.025 228.196 513.117 228.928C513.404 229.078 513.653 229.251 513.862 229.447C514.855 230.375 515.351 231.479 515.351 232.76C515.351 234.092 514.914 235.226 514.038 236.16C513.143 237.108 511.934 237.581 510.412 237.581C508.883 237.581 507.674 237.108 506.786 236.16C505.91 235.226 505.472 234.092 505.472 232.76ZM508.128 235.494C508.716 236.167 509.478 236.503 510.412 236.503C511.346 236.503 512.107 236.167 512.695 235.494C513.159 234.965 513.391 234.06 513.391 232.779C513.391 231.786 513.202 231.067 512.823 230.623C512.3 230.009 511.496 229.702 510.412 229.702C509.327 229.702 508.524 230.009 508.001 230.623C507.622 231.067 507.433 231.786 507.433 232.779C507.433 234.06 507.664 234.965 508.128 235.494ZM511.941 224.067C511.555 223.668 511.046 223.469 510.412 223.469C509.778 223.469 509.268 223.668 508.883 224.067C508.498 224.465 508.305 225.158 508.305 226.144C508.305 227.033 508.452 227.64 508.746 227.967C509.138 228.405 509.693 228.624 510.412 228.624C511.131 228.624 511.686 228.405 512.078 227.967C512.372 227.64 512.519 227.033 512.519 226.144C512.519 225.158 512.326 224.465 511.941 224.067Z" fill="black"/>
<path d="M195.253 385.685V385.502L196.111 383.677L205.911 374.297C208.721 371.45 210.126 368.798 210.126 366.341C210.126 364.199 209.719 362.636 208.903 361.651C207.869 360.398 206.452 359.771 204.651 359.771C202.912 359.771 201.494 360.398 200.399 361.651C199.56 362.624 199.14 364.047 199.14 365.921C199.14 367.235 199.359 368.263 199.797 369.005L196.731 370.483H196.549C195.807 369.169 195.436 367.728 195.436 366.158C195.436 364.066 196.257 362.15 197.899 360.41C199.566 358.646 201.817 357.764 204.651 357.764C207.486 357.764 209.737 358.646 211.404 360.41C213.034 362.137 213.849 364.254 213.849 366.76C213.837 369.498 212.194 372.375 208.922 375.392L199.195 383.677H213.922V383.86L213.064 385.685H195.253ZM224.16 378.203C224.16 379.833 224.598 381.153 225.474 382.163C226.556 383.416 227.974 384.042 229.726 384.042C231.477 384.042 232.895 383.416 233.978 382.163C234.854 381.153 235.292 379.833 235.292 378.203V365.611C235.292 363.98 234.854 362.66 233.978 361.651C232.895 360.398 231.477 359.771 229.726 359.771C227.974 359.771 226.556 360.398 225.474 361.651C224.598 362.66 224.16 363.98 224.16 365.611V378.203ZM220.51 376.925V366.888C220.51 364.248 221.331 362.089 222.973 360.41C224.701 358.646 226.952 357.764 229.726 357.764C232.499 357.764 234.75 358.646 236.478 360.41C238.12 362.077 238.941 364.236 238.941 366.888V376.925C238.941 379.565 238.12 381.725 236.478 383.404C234.75 385.168 232.499 386.05 229.726 386.05C226.952 386.05 224.701 385.168 222.973 383.404C221.331 381.725 220.51 379.565 220.51 376.925ZM245.329 385.685V385.502L246.186 383.677L255.986 374.297C258.796 371.45 260.202 368.798 260.202 366.341C260.202 364.199 259.794 362.636 258.979 361.651C257.945 360.398 256.527 359.771 254.727 359.771C252.987 359.771 251.57 360.398 250.475 361.651C249.635 362.624 249.216 364.047 249.216 365.921C249.216 367.235 249.435 368.263 249.873 369.005L246.807 370.483H246.624C245.882 369.169 245.511 367.728 245.511 366.158C245.511 364.066 246.332 362.15 247.975 360.41C249.641 358.646 251.892 357.764 254.727 357.764C257.561 357.764 259.812 358.646 261.479 360.41C263.109 362.137 263.924 364.254 263.924 366.76C263.912 369.498 262.27 372.375 258.997 375.392L249.27 383.677H263.997V383.86L263.14 385.685H245.329ZM274.235 378.203C274.235 379.833 274.673 381.153 275.549 382.163C276.632 383.416 278.049 384.042 279.801 384.042C281.553 384.042 282.97 383.416 284.053 382.163C284.929 381.153 285.367 379.833 285.367 378.203V365.611C285.367 363.98 284.929 362.66 284.053 361.651C282.97 360.398 281.553 359.771 279.801 359.771C278.049 359.771 276.632 360.398 275.549 361.651C274.673 362.66 274.235 363.98 274.235 365.611V378.203ZM270.585 376.925V366.888C270.585 364.248 271.406 362.089 273.049 360.41C274.776 358.646 277.027 357.764 279.801 357.764C282.575 357.764 284.826 358.646 286.553 360.41C288.196 362.077 289.017 364.236 289.017 366.888V376.925C289.017 379.565 288.196 381.725 286.553 383.404C284.826 385.168 282.575 386.05 279.801 386.05C277.027 386.05 274.776 385.168 273.049 383.404C271.406 381.725 270.585 379.565 270.585 376.925Z" fill="black"/>
</svg>
